# xmcd
#
# Track frame offsets:
#	150
#	11557
#	25510
#	38110
#	51235
#	72685
#	84760
#	97510
#	109585
#	120832
#	133810
#	145210
#	157885
#	170932
#	184585
#	197860
#
# Disc length: 2820
#
# Revision: 2
# Processed by: cddbd v1.5.1PL0 Copyright (c) Steve Scherf et al.
# Submitted via: audiograbber 1.83.01
# Normalized: r1:TDELIM( - )
#
DISCID=ca0b0210
DTITLE=The Platters and Sam Cooke - LG095
DYEAR=1900
DGENRE=Karaoke R&B 
TTITLE0=Platters, The - Smoke Gets In Your Eyes
TTITLE1=Platters, The - Great Pretender, The
TTITLE2=Platters, The - Twilight Time
TTITLE3=Platters, The - Only You
TTITLE4=Platters, The - My Prayer
TTITLE5=Platters, The - You've Got The Magic Touch
TTITLE6=Platters, The - Harbor Lights
TTITLE7=Sam Cooke - Having A Party
TTITLE8=Sam Cooke - Wonderful World
TTITLE9=Sam Cooke - Chain Gang
TTITLE10=Sam Cooke - Only Sixteen
TTITLE11=Sam Cooke - Cupid
TTITLE12=Sam Cooke - Twisting The Night Away
TTITLE13=Sam Cooke - Frankie And Johnnie
TTITLE14=Sam Cooke - Shake, The
TTITLE15=Sam Cooke - You Send Me
EXTD=
EXTT0=
EXTT1=
EXTT2=
EXTT3=
EXTT4=
EXTT5=
EXTT6=
EXTT7=
EXTT8=
EXTT9=
EXTT10=
EXTT11=
EXTT12=
EXTT13=
EXTT14=
EXTT15=
PLAYORDER=
